<?xml version="1.0" encoding="UTF-8" standalone="no"?>
<svg viewBox="0 0 230.31496 194.88188" xmlns="http://www.w3.org/2000/svg">
<g transform="matrix(.75604,0,0,.75604,-376.49988,-44.37714)">
<path d="m389.71877,444.50916c0,116.28708-77.79036,210.55639-173.74962,210.55639s-173.74962-94.26931-173.74962-210.55639 77.79035-210.5564 173.74962-210.5564c95.52943,0 173.14058,93.45784 173.74612,209.22171" fill="#1a0dff" transform="matrix(.24611,0,0,.17944,576.35277,32.94613)"/>
<path d="m389.71877,444.50916c0,116.28708-77.79036,210.55639-173.74962,210.55639s-173.74962-94.26931-173.74962-210.55639 77.79035-210.5564 173.74962-210.5564c95.52943,0 173.14058,93.45784 173.74612,209.22171" fill="#fff" transform="matrix(.05878,-.01188,.0063,.0312,617.11896,113.78363)"/>
<path d="m623.24313,311.23663c-5.53087-9.60863-5.04922-21.20309-7.78403-31.71475-7.91803-45.7611-19.50654-90.75128-30.05571-135.9427-2.95883-11.80208-8.75469-23.97155-4.36234-36.24519 7.57394-23.29399 29.63819-40.49943 53.32386-45.14521 11.30419-3.40948 21.47143,4.54059 29.04865,12.01429 20.05867,17.05497 18.89729,49.63484 2.96344,69.02074-11.87691,14.44176-32.33209,18.64815-50.12587,15.87247-4.46984-2.11526-14.56121-3.51461-9.45606,4.42141 13.13763,43.60328 24.68058,88.0148 28.88801,133.48423 .0952,6.76048-3.06967,19.10237-12.43995,14.23471zm15.04864-167.35629c14.14713-1.02114 24.29551-13.07308 27.91624-26.00583 3.74469-9.39911 3.54942-21.56692-5.05357-28.27338-8.49225-6.59865-18.9797-11.6417-29.86431-11.99184-12.02664-.6099-22.46072,7.17356-30.82263,14.85718-7.23312,9.47181-13.76769,23.39974-6.14863,34.55464 9.89203,13.1276 27.54595,21.9778 43.9729,16.85923zm-15.53455-10.55248c-7.19183-4.05733-10.15603-16.28587 1.79591-13.66704 11.99282-5.00276 27.51486-10.08862 19.67725,7.16581-2.84134,7.95282-13.89286,9.35766-20.92872,6.78119l-.47964-.24664-.0648-.0333zm14.94052-6.23315c13.80987-16.0055-27.69347-.45538-7.88563,2.09318 2.7254-.25347 5.31803-1.20558 7.88563-2.09318zm-24.61299-19.45681c-7.7492-9.3834 13.8644-8.10618 5.21432.84605-1.46286,1.53659-4.15435.80163-5.21432-.84605zm17.28668-4.50315c-6.47167-12.95229 20.04166-6.42158 6.65032,1.32725-2.2433.64355-4.88256.27608-6.65032-1.32725z"/>
</g>
</svg>
