<?xml version="1.0" encoding="UTF-8" standalone="no"?>
<svg viewBox="0 0 100 100" xmlns="http://www.w3.org/2000/svg" xmlns:xlink="http://www.w3.org/1999/xlink">
<defs>
<linearGradient id="linearGradient3579">
<stop offset="0" stop-color="#fff"/>
<stop offset="1" stop-color="#fff" stop-opacity="0"/>
</linearGradient>
<linearGradient gradientTransform="scale(.88267,1.13293)" gradientUnits="userSpaceOnUse" id="linearGradient10460" x1="80.23925" x2="18.9038" y1="81.05584" y2="13.94463">
<stop offset="0"/>
<stop offset="1" stop-color="#606060"/>
</linearGradient>
<linearGradient gradientTransform="matrix(1.2691,-.13167,8.088146e-2,.77957,3.523657e-17,-5.355959e-17)" gradientUnits="userSpaceOnUse" id="linearGradient10462" x1="-19.03994" x2="15.22376" xlink:href="#linearGradient3579" y1="52.71389" y2="111.3392"/>
<linearGradient gradientTransform="matrix(.60451,-6.271869e-2,.1698,1.63661,0,0)" gradientUnits="userSpaceOnUse" id="linearGradient10464" x1="71.08833" x2="97.34319" xlink:href="#linearGradient3579" y1="-6.62121" y2="37.16391"/>
<linearGradient gradientTransform="scale(.5831,1.71498)" gradientUnits="userSpaceOnUse" id="linearGradient10466" x1="95.22461" x2="156.67999" xlink:href="#linearGradient3579" y1="4.42508" y2="20.79283"/>
</defs>
<g transform="matrix(.96927,0,0,.96927,.38699,2.0647)">
<path d="m69,2.3125c-4.18195,6.72291-5.16237,15.57561-8.15356,23.08587l-11.94019,37.75788c-10.9996-12.49683-34.62967-4.74859-35.9998,11.95853-2.93682,15.68978 15.41077,29.88729 29.90605,22.69772 13.6744-7.18798 14.0486-24.62609 18.98238-37.4967l10.70512-35.47205c3.6591,9.56691 8.86144,23.02871-.81669,30.7965-6.03808,2.8495-4.28535,14.03412 3.22294,11.73475 13.14037-5.45866 18.01295-23.40593 12.05505-35.8602-4.41893-9.29314-10.01153-18.16717-15.22039-27.08274-.76261-.6829-1.26572-3.03014-2.74092-2.11956z"/>
<path d="m69.65817,4.101-2.31732,7.34083-17.54588,55.57616c-3.93408-5.54482-10.57386-8.92521-17.81365-8.17408-10.69034,1.10913-18.46489,10.6829-17.35569,21.37392s10.68358,18.46482 21.37392,17.35569c8.42867-.87448 14.95994-7.05021 16.83886-14.84825l19.3709-64.05465c1.69078,2.96157 3.67942,9.84458 5.0451,13.82933 1.62928,4.75387 2.52894,9.79598 1.85323,14.22847s-2.66701,8.33378-7.54671,11.74777c-1.3023.76034-2.06339,2.18678-1.97327,3.6921s1.01401,2.82757 2.39772,3.42711 2.98911.37615 4.14902-.58755c6.52026-4.56179 9.90442-10.78459 10.8604-17.05557s.37423-12.56638-2.21312-17.06508c-5.05984-7.89046-8.20046-14.22506-10.90653-18.73938-1.24753-2.69868-2.81133-5.36455-4.21699-8.04682z" fill="url(#linearGradient10460)"/>
<path d="m28.3428,60.41529c-7.29704,2.35558-11.24273,7.73072-12.46881,14.22804 6.64689,28.46109 14.40955-11.38023 33.39159-6.18736 .36888-1.99024-8.96213-11.56943-20.92278-8.04069z" fill="url(#linearGradient10462)"/>
<path d="m50.70563,66.93415c4.80155-2.27254 14.70418-50.34023 20.97544-50.35336-1.83996-.42947-2.17127-3.24014-2.2861-9.79118-.32803,1.05191-18.47372,60.36688-18.68934,60.14453z" fill="url(#linearGradient10464)"/>
<path d="m71.54213,16.85215c0,0 22.41653,33.86327 6.51828,35.93005 3.6566-4.29253 3.81558-16.53418-6.51828-35.93005z" fill="url(#linearGradient10466)" fill-rule="evenodd"/>
</g>
</svg>
